<svg width="22" height="22" viewBox="0 0 22 22" fill="none" xmlns="http://www.w3.org/2000/svg">
<path d="M7.10419 1.83337V4.58337H6.41669C6.17835 4.58337 5.94919 4.59254 5.72919 4.62921V1.83337C5.72919 1.45754 6.04085 1.14587 6.41669 1.14587C6.79252 1.14587 7.10419 1.45754 7.10419 1.83337Z" fill="currentColor" />
<path d="M15.5833 4.58337H6.41665C6.17831 4.58337 5.94915 4.59254 5.72915 4.62921C3.36415 4.90421 1.83331 6.65504 1.83331 9.16671V15.5834C1.83331 18.3334 3.66665 20.1667 6.41665 20.1667H15.5833C18.3333 20.1667 20.1666 18.3334 20.1666 15.5834V9.16671C20.1666 6.41671 18.3333 4.58337 15.5833 4.58337ZM7.22331 14.6667C5.95831 14.6667 4.93165 13.64 4.93165 12.375C4.93165 11.11 5.95831 10.0834 7.22331 10.0834C8.48831 10.0834 9.51498 11.11 9.51498 12.375C9.51498 13.64 8.48831 14.6667 7.22331 14.6667ZM13.1816 14.8959H12.7233C12.3475 14.8959 12.0358 14.5842 12.0358 14.2084C12.0358 13.8325 12.3475 13.5209 12.7233 13.5209H13.1816C13.5575 13.5209 13.8691 13.8325 13.8691 14.2084C13.8691 14.5842 13.5575 14.8959 13.1816 14.8959ZM16.39 14.8959H15.9316C15.5558 14.8959 15.2441 14.5842 15.2441 14.2084C15.2441 13.8325 15.5558 13.5209 15.9316 13.5209H16.39C16.7658 13.5209 17.0775 13.8325 17.0775 14.2084C17.0775 14.5842 16.7658 14.8959 16.39 14.8959ZM16.39 11.2292H12.7233C12.3475 11.2292 12.0358 10.9175 12.0358 10.5417C12.0358 10.1659 12.3475 9.85421 12.7233 9.85421H16.39C16.7658 9.85421 17.0775 10.1659 17.0775 10.5417C17.0775 10.9175 16.7658 11.2292 16.39 11.2292Z" fill="currentColor" />
</svg>
